<?xml version="1.0" encoding="UTF-8" standalone="no"?>
<!-- Created with Inkscape (http://www.inkscape.org/) -->

<svg
   xmlns:dc="http://purl.org/dc/elements/1.1/"
   xmlns:cc="http://creativecommons.org/ns#"
   xmlns:rdf="http://www.w3.org/1999/02/22-rdf-syntax-ns#"
   xmlns:svg="http://www.w3.org/2000/svg"
   xmlns="http://www.w3.org/2000/svg"
   xmlns:xlink="http://www.w3.org/1999/xlink"
   version="1.1"
   width="500"
   height="500"
   viewBox="0 0 500 500"
   id="Layer_1"
   xml:space="preserve"><metadata
     id="metadata169"><rdf:RDF><cc:Work
         rdf:about=""><dc:format>image/svg+xml</dc:format><dc:type
           rdf:resource="http://purl.org/dc/dcmitype/StillImage" /><dc:title></dc:title></cc:Work></rdf:RDF></metadata><defs
     id="defs167" /><rect
     width="499.97299"
     height="499.97299"
     x="0"
     y="0"
     id="rect3"
     style="fill:#ffffff" /><path
     d="M 473.118,499.973 H 26.854 C 12.011,499.973 0,487.963 0,473.117 V 26.854 C 0,12.011 12.011,0 26.854,0 h 446.264 c 14.843,0 26.854,12.011 26.854,26.854 v 446.263 c 0.001,14.846 -12.011,26.856 -26.854,26.856 z"
     id="path5"
     style="fill:#ffffff" /><g
     id="g7"><polygon
       points="138.566,311.506 138.566,310.236 138.566,300.375 138.566,301.643 "
       id="polygon9"
       style="fill:#818181" /></g><g
     id="g11"><polygon
       points="138.566,312.385 138.566,311.506 138.566,301.643 138.566,302.521 "
       id="polygon13"
       style="fill:#818181" /></g><g
     id="g15"><g
       id="g17"><defs
         id="defs19"><path
           d="m 199.403,317.561 v -9.863 c 0,-2.051 0.098,-4.197 0.391,-6.25 v 9.863 c -0.294,2.05 -0.391,4.101 -0.391,6.25 z"
           id="SVGID_1_" /></defs><clipPath
         id="SVGID_2_"><use
           id="use23"
           style="overflow:visible"
           x="0"
           y="0"
           width="500"
           height="500"
           xlink:href="#SVGID_1_" /></clipPath><g
         clip-path="url(#SVGID_2_)"
         id="g25"><path
           d="m 199.696,301.35 v 9.863 c 0,0.098 0,0.293 0,0.391 v -9.861 c 0,-0.1 0,-0.196 0,-0.393"
           id="path27"
           style="fill:#9c9c9d" /><path
           d="m 199.696,301.84 v 9.861 c 0,0.293 -0.098,0.586 -0.098,0.879 v -9.861 c 0,-0.293 0.098,-0.686 0.098,-0.879"
           id="path29"
           style="fill:#9b9c9c" /><path
           d="m 199.598,302.719 v 9.861 c 0,0.293 -0.098,0.586 -0.098,0.879 v -9.863 c 0.098,-0.293 0.098,-0.682 0.098,-0.877"
           id="path31"
           style="fill:#9a9a9a" /><path
           d="m 199.598,303.596 v 9.863 c 0,0.293 -0.098,0.586 -0.098,0.879 v -9.863 c 0,-0.293 0,-0.586 0.098,-0.879"
           id="path33"
           style="fill:#989898" /><path
           d="m 199.5,304.475 v 9.863 c 0,0.293 -0.098,0.586 -0.098,0.879 v -9.863 c 0.001,-0.293 0.098,-0.586 0.098,-0.879"
           id="path35"
           style="fill:#989798" /><path
           d="m 199.403,305.354 v 9.863 c 0,0.293 0,0.586 0,0.879 v -9.863 c 0,-0.294 0,-0.587 0,-0.879"
           id="path37"
           style="fill:#969696" /><path
           d="m 199.403,306.232 v 9.863 c 0,0.293 0,0.684 0,0.977 v -9.863 c 0,-0.293 0,-0.684 0,-0.977"
           id="path39"
           style="fill:#959595" /><path
           d="m 199.403,307.209 v 9.863 c 0,0.195 0,0.293 0,0.488 v -9.863 c 0,-0.195 0,-0.39 0,-0.488"
           id="path41"
           style="fill:#959494" /></g></g></g><radialGradient
     cx="825.66211"
     cy="-6296.4111"
     r="50.949799"
     id="SVGID_3_"
     gradientUnits="userSpaceOnUse"
     gradientTransform="matrix(3.2213,0,0,-0.4854,-2400.2051,-2645.1956)"><stop
       id="stop44"
       style="stop-color:#989190;stop-opacity:1"
       offset="0.0055" /><stop
       id="stop46"
       style="stop-color:#9d9695;stop-opacity:1"
       offset="0.0825" /><stop
       id="stop48"
       style="stop-color:#a9a3a5;stop-opacity:1"
       offset="0.1798" /><stop
       id="stop50"
       style="stop-color:#beb9bf;stop-opacity:1"
       offset="0.28740001" /><stop
       id="stop52"
       style="stop-color:#cecbd4;stop-opacity:1"
       offset="0.35980001" /><stop
       id="stop54"
       style="stop-color:#dcdae0;stop-opacity:1"
       offset="0.44769999" /><stop
       id="stop56"
       style="stop-color:#efeef0;stop-opacity:1"
       offset="0.60519999" /><stop
       id="stop58"
       style="stop-color:#fbfcfe;stop-opacity:1"
       offset="0.76109999" /><stop
       id="stop60"
       style="stop-color:#ffffff;stop-opacity:1"
       offset="0.91210002" /></radialGradient><path
     d="m 423.511,411.209 c 0,13.67 -73.433,24.803 -164.053,24.803 -90.62,0 -164.053,-11.035 -164.053,-24.803 0,-13.674 73.433,-24.707 164.053,-24.707 90.62,-0.098 164.053,11.033 164.053,24.707 z"
     id="path62"
     style="fill:url(#SVGID_3_)" /><g
     id="g64"><g
       id="g66"><radialGradient
         cx="824.07031"
         cy="-6275.332"
         r="35.487"
         id="SVGID_4_"
         gradientUnits="userSpaceOnUse"
         gradientTransform="matrix(3.2213,0,0,-0.4854,-2400.2051,-2645.1956)"><stop
           id="stop69"
           style="stop-color:#807775;stop-opacity:1"
           offset="0" /><stop
           id="stop71"
           style="stop-color:#9c9794;stop-opacity:1"
           offset="0.0799" /><stop
           id="stop73"
           style="stop-color:#e3e1e1;stop-opacity:1"
           offset="0.2825" /><stop
           id="stop75"
           style="stop-color:#ffffff;stop-opacity:1"
           offset="0.3759" /><stop
           id="stop77"
           style="stop-color:#ffffff;stop-opacity:1"
           offset="1" /></radialGradient><path
         d="m 368.632,400.955 c 0,9.568 -51.17,17.285 -114.252,17.285 -63.18,0 -114.349,-7.717 -114.349,-17.285 0,-9.473 51.169,-17.285 114.349,-17.285 63.082,0.098 114.252,7.812 114.252,17.285 z"
         id="path79"
         style="fill:url(#SVGID_4_)" /></g></g><g
     id="g81"><g
       id="g83"><linearGradient
         x1="215.2979"
         y1="218.2632"
         x2="275.10739"
         y2="218.2632"
         id="SVGID_5_"
         gradientUnits="userSpaceOnUse"
         gradientTransform="matrix(4.1667,0,0,-4.1667,-779.9922,1188.3711)"><stop
           id="stop86"
           style="stop-color:#807775;stop-opacity:1"
           offset="0" /><stop
           id="stop88"
           style="stop-color:#9c9794;stop-opacity:1"
           offset="0.0799" /><stop
           id="stop90"
           style="stop-color:#e3e1e1;stop-opacity:1"
           offset="0.2825" /><stop
           id="stop92"
           style="stop-color:#ffffff;stop-opacity:1"
           offset="0.3759" /><stop
           id="stop94"
           style="stop-color:#e7e7e7;stop-opacity:1"
           offset="0.4395" /><stop
           id="stop96"
           style="stop-color:#c2c2c2;stop-opacity:1"
           offset="0.55339998" /><stop
           id="stop98"
           style="stop-color:#a5a5a5;stop-opacity:1"
           offset="0.66759998" /><stop
           id="stop100"
           style="stop-color:#919191;stop-opacity:1"
           offset="0.78060001" /><stop
           id="stop102"
           style="stop-color:#848484;stop-opacity:1"
           offset="0.89209998" /><stop
           id="stop104"
           style="stop-color:#818181;stop-opacity:1"
           offset="1" /></linearGradient><path
         d="M 365.995,296.273 H 174.697 c 2.734,16.893 10.156,30.271 22.167,40.23 12.011,9.961 27.342,14.941 45.896,14.941 22.265,0 41.403,-7.813 57.419,-23.338 l 50.191,23.533 c -12.498,17.771 -27.537,30.857 -44.918,39.354 -17.479,8.496 -38.182,12.793 -62.204,12.793 -37.205,0 -67.575,-11.719 -91.011,-35.252 -23.436,-23.535 -35.154,-52.928 -35.154,-88.277 0,-36.229 11.718,-66.305 35.057,-90.229 23.339,-23.924 52.634,-35.935 87.789,-35.935 37.401,0 67.77,12.011 91.207,35.935 23.437,23.925 35.154,55.563 35.154,94.819 l -0.295,11.426 z M 306.428,249.4 c -3.905,-13.281 -11.719,-24.022 -23.24,-32.323 -11.62,-8.3 -24.999,-12.401 -40.33,-12.401 -16.601,0 -31.15,4.688 -43.748,13.964 -7.91,5.859 -15.136,16.112 -21.874,30.76 h 129.192 z"
         id="path106"
         style="fill:url(#SVGID_5_)" /></g><linearGradient
       x1="194.5098"
       y1="249.99609"
       x2="292.26761"
       y2="249.99609"
       id="SVGID_6_"
       gradientUnits="userSpaceOnUse"
       gradientTransform="matrix(4.1667,0,0,-4.1667,-779.9922,1188.3711)"><stop
         id="stop109"
         style="stop-color:#807775;stop-opacity:1"
         offset="0" /><stop
         id="stop111"
         style="stop-color:#9c9794;stop-opacity:1"
         offset="0.0799" /><stop
         id="stop113"
         style="stop-color:#e3e1e1;stop-opacity:1"
         offset="0.2825" /><stop
         id="stop115"
         style="stop-color:#ffffff;stop-opacity:1"
         offset="0.3759" /><stop
         id="stop117"
         style="stop-color:#e7e7e7;stop-opacity:1"
         offset="0.4395" /><stop
         id="stop119"
         style="stop-color:#c2c2c2;stop-opacity:1"
         offset="0.55339998" /><stop
         id="stop121"
         style="stop-color:#a5a5a5;stop-opacity:1"
         offset="0.66759998" /><stop
         id="stop123"
         style="stop-color:#919191;stop-opacity:1"
         offset="0.78060001" /><stop
         id="stop125"
         style="stop-color:#848484;stop-opacity:1"
         offset="0.89209998" /><stop
         id="stop127"
         style="stop-color:#818181;stop-opacity:1"
         offset="1" /></linearGradient><path
       d="M 436.792,127.825 C 429.468,100.19 384.158,82.417 321.271,82.417 c -43.554,0 -143.352,2.832 -255.552,91.01 -13.085,11.132 -35.252,31.249 -35.252,31.249 0,0 28.807,-17.187 36.521,-22.655 74.996,-49.021 168.252,-69.528 241.1,-69.528 49.704,0 83.883,10.546 91.598,28.221 6.248,14.257 -5.957,31.932 -17.383,44.236 l -29.295,26.073 35.252,-18.554 c 47.066,-26.853 52.34,-49.996 48.532,-64.644 z"
       id="path129"
       style="fill:url(#SVGID_6_)" /></g><g
     id="g131"><g
       id="g133"><path
         d="M 376.444,291.098 H 185.146 c 2.734,16.893 10.156,30.271 22.167,40.23 12.011,9.961 27.342,14.941 45.896,14.941 22.265,0 41.404,-7.813 57.419,-23.338 l 50.192,23.533 c -12.499,17.771 -27.538,30.859 -44.919,39.354 -17.479,8.496 -38.183,12.793 -62.203,12.793 -37.206,0 -67.575,-11.719 -91.011,-35.252 -23.436,-23.533 -35.154,-52.928 -35.154,-88.277 0,-36.228 11.718,-66.305 35.057,-90.229 23.338,-23.925 52.633,-35.936 87.788,-35.936 37.401,0 67.77,12.011 91.207,35.936 23.436,23.924 35.154,55.563 35.154,94.819 l -0.295,11.426 z m -59.568,-46.873 c -3.905,-13.28 -11.718,-24.022 -23.24,-32.322 -11.62,-8.3 -24.998,-12.402 -40.33,-12.402 -16.6,0 -31.15,4.688 -43.747,13.964 -7.91,5.859 -15.136,16.113 -21.874,30.76 h 129.191 z"
         id="path135"
         style="fill:#e6e6e5" /></g><path
       d="M 447.143,122.649 C 439.82,95.014 394.51,77.241 331.622,77.241 288.07,77.241 188.271,80.073 76.071,168.252 62.984,179.385 40.818,199.5 40.818,199.5 c 0,0 28.807,-17.186 36.521,-22.655 74.996,-49.021 168.252,-69.528 241.1,-69.528 49.704,0 83.882,10.546 91.596,28.222 6.25,14.256 -5.956,31.932 -17.382,44.235 l -29.295,26.073 35.253,-18.554 c 47.164,-26.853 52.438,-49.996 48.532,-64.644 z"
       id="path137"
       style="fill:#e6e6e5" /></g><g
     id="g139"><g
       id="g141"><linearGradient
         x1="216.53999"
         y1="218.2632"
         x2="276.34961"
         y2="218.2632"
         id="SVGID_7_"
         gradientUnits="userSpaceOnUse"
         gradientTransform="matrix(4.1667,0,0,-4.1667,-779.9922,1188.3711)"><stop
           id="stop144"
           style="stop-color:#2aaae2;stop-opacity:1"
           offset="0" /><stop
           id="stop146"
           style="stop-color:#1072ba;stop-opacity:1"
           offset="0.18279999" /><stop
           id="stop148"
           style="stop-color:#223d78;stop-opacity:1"
           offset="1" /></linearGradient><path
         d="M 371.171,296.273 H 179.873 c 2.734,16.893 10.155,30.271 22.167,40.23 12.011,9.961 27.342,14.941 45.896,14.941 22.264,0 41.404,-7.813 57.418,-23.338 l 50.192,23.533 c -12.498,17.771 -27.537,30.857 -44.919,39.354 -17.479,8.496 -38.181,12.793 -62.203,12.793 -37.205,0 -67.575,-11.719 -91.011,-35.252 -23.437,-23.535 -35.154,-52.928 -35.154,-88.277 0,-36.229 11.718,-66.305 35.057,-90.229 23.338,-23.924 52.634,-35.935 87.788,-35.935 37.401,0 67.77,12.011 91.206,35.935 23.437,23.925 35.154,55.563 35.154,94.819 l -0.293,11.426 z M 311.604,249.4 c -3.906,-13.281 -11.719,-24.022 -23.241,-32.323 -11.619,-8.3 -24.998,-12.401 -40.329,-12.401 -16.601,0 -31.151,4.688 -43.748,13.964 -7.91,5.859 -15.136,16.112 -21.874,30.76 h 129.192 z"
         id="path150"
         style="fill:url(#SVGID_7_)" /></g><radialGradient
       cx="244.6362"
       cy="865.69629"
       r="36.2435"
       id="SVGID_8_"
       gradientUnits="userSpaceOnUse"
       gradientTransform="matrix(4.1667,0,0,-25,-779.9922,21789.141)"><stop
         id="stop153"
         style="stop-color:#db7d82;stop-opacity:1"
         offset="0" /><stop
         id="stop155"
         style="stop-color:#c1282d;stop-opacity:1"
         offset="0.70990002" /><stop
         id="stop157"
         style="stop-color:#b02227;stop-opacity:1"
         offset="0.79439998" /><stop
         id="stop159"
         style="stop-color:#801517;stop-opacity:1"
         offset="0.96329999" /><stop
         id="stop161"
         style="stop-color:#751113;stop-opacity:1"
         offset="1" /></radialGradient><path
       d="M 441.968,127.825 C 434.644,100.19 389.334,82.417 326.447,82.417 c -43.553,0 -143.352,2.832 -255.552,91.01 -13.085,11.132 -35.251,31.249 -35.251,31.249 0,0 28.807,-17.187 36.521,-22.655 74.996,-49.021 168.252,-69.528 241.1,-69.528 49.704,0 83.882,10.546 91.596,28.221 6.25,14.257 -5.956,31.932 -17.381,44.236 l -29.295,26.073 35.252,-18.554 c 47.163,-26.853 52.436,-49.996 48.531,-64.644 z"
       id="path163"
       style="fill:url(#SVGID_8_)" /></g></svg>